<?xml version="1.0" encoding="UTF-8" standalone="no"?>
<!-- Created with Inkscape (http://www.inkscape.org/) -->

<svg
   width="512"
   height="512"
   viewBox="0 0 135.46665 135.46665"
   version="1.1"
   id="svg1"
   inkscape:export-filename="lock.png"
   inkscape:export-xdpi="96"
   inkscape:export-ydpi="96"
   inkscape:version="1.3 (0e150ed6c4, 2023-07-21)"
   sodipodi:docname="drawing.svg"
   xmlns:inkscape="http://www.inkscape.org/namespaces/inkscape"
   xmlns:sodipodi="http://sodipodi.sourceforge.net/DTD/sodipodi-0.dtd"
   xmlns="http://www.w3.org/2000/svg"
   xmlns:svg="http://www.w3.org/2000/svg">
  <sodipodi:namedview
     id="namedview1"
     pagecolor="#505050"
     bordercolor="#eeeeee"
     borderopacity="1"
     inkscape:showpageshadow="0"
     inkscape:pageopacity="0"
     inkscape:pagecheckerboard="0"
     inkscape:deskcolor="#505050"
     inkscape:document-units="px"
     showguides="true"
     inkscape:zoom="1.3815908"
     inkscape:cx="293.50224"
     inkscape:cy="231.97896"
     inkscape:window-width="2236"
     inkscape:window-height="1331"
     inkscape:window-x="0"
     inkscape:window-y="0"
     inkscape:window-maximized="1"
     inkscape:current-layer="layer1">
    <sodipodi:guide
       position="67.733325,67.733325"
       orientation="-1,0"
       id="guide1"
       inkscape:locked="false"
       inkscape:label=""
       inkscape:color="rgb(0,134,229)" />
  </sodipodi:namedview>
  <defs
     id="defs1" />
  <g
     inkscape:label="Layer 1"
     inkscape:groupmode="layer"
     id="layer1"
     transform="translate(-35.45418,-19.314582)">
    <g
       id="g12"
       transform="matrix(3.9973875,0,0,3.9854077,-95.114201,-57.335537)">
      <path
         id="path2-6"
         style="color:#000000;fill:#353535;-inkscape-stroke:none"
         d="m 49.607308,19.314582 c -5.866954,0 -10.685653,4.818695 -10.685653,10.685653 h 5.820317 c 0,-2.721159 2.144179,-4.863269 4.865336,-4.863269 2.721156,0 4.865336,2.14211 4.865336,4.863269 h 5.820316 c 0,-5.866958 -4.818698,-10.685653 -10.685652,-10.685653 z m -10.68617,10.686686 v 7.801591 c 0,0.943696 1.185758,1.270723 2.910417,1.270723 1.724657,0 2.910417,-0.327027 2.910417,-1.270723 v -7.801591 z m 15.551506,0 v 2.799829 c 0.958153,0.293256 1.612563,1.177686 1.612821,2.179712 -7.12e-4,1.001644 -0.655033,1.885534 -1.612821,2.178678 v 0.643372 c 0,0.943696 1.185759,1.270723 2.910416,1.270723 1.72466,0 2.910417,-0.327027 2.910417,-1.270723 v -7.801591 z"
         sodipodi:nodetypes="sccsccscsscccccccssscc" />
      <path
         id="rect1-1"
         style="fill:#353535;stroke-width:0.264583"
         d="m 40.413555,32.765448 c -2.747577,0 -4.959384,2.211809 -4.959384,4.959387 v 10.457243 c 0,2.747578 2.211807,4.959387 4.959384,4.959387 h 18.38854 c 2.747579,0 4.959387,-2.211809 4.959387,-4.959387 V 37.724835 c 0,-2.747578 -2.211808,-4.959387 -4.959387,-4.959387 z m 9.194269,4.527372 a 3.2944794,3.2944794 0 0 1 3.294373,3.294889 3.2944794,3.2944794 0 0 1 -1.527039,2.779159 v 3.179651 c 0,1.145442 -0.78822,2.067574 -1.767334,2.067574 -0.979112,0 -1.767333,-0.922132 -1.767333,-2.067574 v -3.179651 a 3.2944794,3.2944794 0 0 1 -1.527039,-2.779159 3.2944794,3.2944794 0 0 1 3.294372,-3.294889 z" />
    </g>
  </g>
</svg>
